<?xml version="1.0" encoding="UTF-8" standalone="no"?>
<!-- Created with Inkscape (http://www.inkscape.org/) -->

<svg
   xmlns:dc="http://purl.org/dc/elements/1.1/"
   xmlns:cc="http://creativecommons.org/ns#"
   xmlns:rdf="http://www.w3.org/1999/02/22-rdf-syntax-ns#"
   xmlns:svg="http://www.w3.org/2000/svg"
   xmlns="http://www.w3.org/2000/svg"
   xmlns:sodipodi="http://sodipodi.sourceforge.net/DTD/sodipodi-0.dtd"
   xmlns:inkscape="http://www.inkscape.org/namespaces/inkscape"
   width="200mm"
   height="200mm"
   viewBox="0 0 200 200"
   version="1.1"
   id="svg8"
   inkscape:version="0.92.4 (5da689c313, 2019-01-14)"
   sodipodi:docname="fleur.svg">
  <defs
     id="defs2" />
  <sodipodi:namedview
     id="base"
     pagecolor="#ffffff"
     bordercolor="#666666"
     borderopacity="1.0"
     inkscape:pageopacity="0.0"
     inkscape:pageshadow="2"
     inkscape:zoom="0.35"
     inkscape:cx="87.142857"
     inkscape:cy="560"
     inkscape:document-units="mm"
     inkscape:current-layer="layer1"
     showgrid="false"
     inkscape:window-width="1366"
     inkscape:window-height="705"
     inkscape:window-x="-8"
     inkscape:window-y="-8"
     inkscape:window-maximized="1" />
  <metadata
     id="metadata5">
    <rdf:RDF>
      <cc:Work
         rdf:about="">
        <dc:format>image/svg+xml</dc:format>
        <dc:type
           rdf:resource="http://purl.org/dc/dcmitype/StillImage" />
        <dc:title></dc:title>
      </cc:Work>
    </rdf:RDF>
  </metadata>
  <g
     inkscape:label="Layer 1"
     inkscape:groupmode="layer"
     id="layer1"
     transform="translate(0,-97)">
    <path
       style="fill:#000000;stroke-width:0.31277123"
       d="m 96.804038,293.07507 c -2.751434,-2.87155 -6.038196,-8.47299 -7.513166,-12.80425 -1.208419,-3.54852 -1.695802,-6.91006 -1.898274,-13.09263 -0.105635,-3.22546 -0.244418,-5.86446 -0.308414,-5.86446 -0.064,0 -0.955857,0.42377 -1.98191,0.94172 -6.507718,3.28509 -13.299557,2.09908 -18.628003,-3.25286 -4.376533,-4.39584 -5.673335,-10.00982 -3.358006,-14.53709 1.245828,-2.43602 3.20179,-3.64483 5.860524,-3.62188 2.510144,0.0216 4.83361,1.05197 6.40936,2.84212 0.660298,0.75013 1.42441,1.36388 1.698032,1.36388 0.691537,0 2.573763,-1.9517 3.350433,-3.4741 2.397783,-4.70004 2.508657,-13.72625 0.233797,-19.03328 -3.562136,-8.31012 -15.261121,-17.98305 -23.480962,-19.41448 -4.386056,-0.7638 -8.999506,0.95017 -12.475396,4.63479 -2.977728,3.15655 -3.193845,3.76321 -3.143766,8.82489 0.02299,2.32232 0.134034,5.24283 0.246795,6.49 l 0.205018,2.26759 -3.555424,-0.002 c -7.615416,-0.005 -13.716196,-2.61926 -19.848104,-8.50613 -3.668385,-3.5218 -5.439676,-5.9549 -7.809319,-10.72711 -2.7066808,-5.45098 -3.0562902,-7.172 -2.8591326,-14.07471 0.2091006,-7.32089 1.0513841,-10.08681 4.7765486,-15.68537 6.89242,-10.35868 18.92024,-15.8125 32.118873,-14.56378 10.017934,0.9478 17.338119,4.52662 26.564063,12.9871 3.373523,3.09363 5.294047,4.66163 5.48086,4.47481 0.06431,-0.0643 -0.316769,-1.57665 -0.84685,-3.36075 -1.939066,-6.52636 -2.817888,-13.52357 -2.817888,-22.43613 0,-12.47319 1.848556,-20.55871 7.196372,-31.47663 4.269273,-8.71602 13.787021,-21.64809 17.29361,-23.497384 1.548587,-0.816685 2.798091,0.04539 6.595341,4.550464 8.98126,10.65538 14.82551,21.17681 18.16611,32.70451 1.20483,4.15762 1.51748,8.96055 1.3237,20.33446 -0.18354,10.77317 -0.43475,13.09399 -2.04819,18.92266 -1.54256,5.57259 -1.64478,5.37742 1.28304,2.44983 4.49484,-4.49446 13.02893,-10.64854 18.21562,-13.13561 3.8778,-1.85945 5.71998,-2.12616 14.72841,-2.1324 4.7843,-0.004 8.55918,0.13793 9.67495,0.36201 2.04213,0.41012 6.53109,2.58873 9.76822,4.74076 6.22843,4.14065 11.49184,11.1306 13.27867,17.63442 0.57487,2.09244 0.66901,3.27247 0.66837,8.37811 -0.001,8.95137 0.17065,8.5191 -7.20702,18.14073 -5.86306,7.64634 -6.05317,7.85525 -8.59594,9.44528 -3.05686,1.91151 -6.31992,3.34982 -9.07121,3.99845 -2.62216,0.61819 -8.17281,0.6388 -8.67623,0.0323 -0.28094,-0.33851 -0.28108,-1.23818 -6.3e-4,-3.83146 0.44394,-4.10491 0.22001,-7.25504 -0.68828,-9.68266 -0.84287,-2.25278 -4.35696,-5.878 -6.90734,-7.12578 -7.7681,-3.80058 -22.0696,3.12619 -29.1509,14.11891 -1.73668,2.69595 -2.77346,5.3285 -3.4887,8.85831 -0.7102,3.50501 -0.48489,9.33134 0.46496,12.02337 0.65217,1.84835 3.29214,6.09905 3.78792,6.09905 0.1398,0 1.07488,-0.70493 2.07794,-1.56651 4.45217,-3.82415 7.56658,-4.05505 10.99248,-0.81498 2.64669,2.50312 3.31102,4.17693 2.84232,7.16119 -0.46463,2.95828 -2.07078,6.04353 -4.47054,8.58739 -5.31886,5.63829 -12.75956,6.96564 -19.62472,3.50088 l -1.76276,-0.88964 -0.15258,7.41482 c -0.17539,8.5236 -0.35189,9.44984 -2.7472,14.41673 -2.83888,5.88667 -6.93508,11.29519 -8.554524,11.29519 -0.16324,0 -0.897164,-0.62658 -1.630956,-1.3924 z"
       id="path28"
       inkscape:connector-curvature="0" />
  </g>
</svg>
